# xmcd
#
# Track frame offsets: 
#        150
#        14972
#        31655
#        49535
#        60710
#        74885
#        86468
#        104718
#        119189
#        133218
#        152874
#        178697
#
# Disc length: 2656 seconds
#
# Revision: 0
# Processed by: cddbd v1.5.2PL0 Copyright (c) Steve Scherf et al.
# Submitted via: ExactAudioCopy v0.99pb4
#
DISCID=b80a5e0c
DTITLE=Various Artist - VISIONS All Areas 112
DYEAR=2010
DGENRE=Alt. Rock
TTITLE0=The Unwinding Hours - Tightrope
TTITLE1=Wive - Tongve of Callvs
TTITLE2=Local Natives - Airplanes
TTITLE3=Eels - Little Bird
TTITLE4=The Black Box Relevlation - High on a Wire
TTITLE5=Smoke Blow - Broken Bonds of Friendship
TTITLE6=Katatonia - Forsaker
TTITLE7=Dioramic - Ghosts in the Machine
TTITLE8=Genepool - Fell off a Donkey
TTITLE9=Facelift - Holon
TTITLE10=Astrosoniq - Faustian Bargain
TTITLE11=Blueneck - Lilitu
EXTD=
EXTT0=
EXTT1=
EXTT2=
EXTT3=
EXTT4=
EXTT5=
EXTT6=
EXTT7=
EXTT8=
EXTT9=
EXTT10=
EXTT11=
PLAYORDER=
